<?xml version="1.0" standalone="no"?><!DOCTYPE svg PUBLIC "-//W3C//DTD SVG 1.1//EN" "http://www.w3.org/Graphics/SVG/1.1/DTD/svg11.dtd"><svg t="1551163259065" class="icon" style="" viewBox="0 0 1024 1024" version="1.1" xmlns="http://www.w3.org/2000/svg" p-id="10905" xmlns:xlink="http://www.w3.org/1999/xlink" width="48" height="48"><defs><style type="text/css"></style></defs><path d="M510.443 880.707l-349.087-348.871c-15.643-15.643-15.641-40.998 0-56.629 15.632-15.64 40.989-15.643 56.631 0l292.562 292.558 293.994-293.99c15.631-15.636 40.99-15.636 56.629 0 15.636 15.641 15.636 40.994 0 56.629l-32.755 32.755-0.203-0.221-317.772 317.771zM510.443 560.351l-349.087-348.875c-15.643-15.643-15.643-40.999 0-56.629 15.632-15.64 40.989-15.643 56.631 0l292.562 292.558 293.994-293.991c15.631-15.636 40.99-15.636 56.629 0 15.636 15.641 15.636 40.999 0 56.629l-32.755 32.763-0.204-0.225-317.772 317.774zM510.443 560.351z" p-id="10906" fill="#707070"></path></svg>